<svg width="41" height="46" viewBox="0 0 41 46" fill="none" xmlns="http://www.w3.org/2000/svg">
<path d="M15.3751 32.5833C15.3751 33.6 15.0151 34.575 14.3744 35.2939C13.7336 36.0128 12.8646 36.4167 11.9584 36.4167C11.0523 36.4167 10.1832 36.0128 9.54247 35.2939C8.90172 34.575 8.54175 33.6 8.54175 32.5833C8.54175 31.5667 8.90172 30.5916 9.54247 29.8728C10.1832 29.1539 11.0523 28.75 11.9584 28.75C12.8646 28.75 13.7336 29.1539 14.3744 29.8728C15.0151 30.5916 15.3751 31.5667 15.3751 32.5833V32.5833ZM32.4584 32.5833C32.4584 33.6 32.0984 34.575 31.4577 35.2939C30.8169 36.0128 29.9479 36.4167 29.0417 36.4167C28.1356 36.4167 27.2665 36.0128 26.6258 35.2939C25.985 34.575 25.6251 33.6 25.6251 32.5833C25.6251 31.5667 25.985 30.5916 26.6258 29.8728C27.2665 29.1539 28.1356 28.75 29.0417 28.75C29.9479 28.75 30.8169 29.1539 31.4577 29.8728C32.0984 30.5916 32.4584 31.5667 32.4584 32.5833V32.5833Z" stroke="#1E90FF"/>
<path d="M25.625 32.5833C25.625 31.5667 25.985 30.5917 26.6257 29.8728C27.2665 29.1539 28.1355 28.75 29.0417 28.75C29.9478 28.75 30.8169 29.1539 31.4576 29.8728C32.0984 30.5917 32.4583 31.5667 32.4583 32.5833M22.2083 30.6667V11.5C22.2083 10.9917 22.0283 10.5042 21.708 10.1447C21.3876 9.78528 20.9531 9.58334 20.5 9.58334H6.83333C6.38026 9.58334 5.94573 9.78528 5.62536 10.1447C5.30498 10.5042 5.125 10.9917 5.125 11.5V30.6667C5.125 31.175 5.30498 31.6625 5.62536 32.022C5.94573 32.3814 6.38026 32.5833 6.83333 32.5833H8.54167L22.2083 30.6667ZM22.2083 30.6667C22.2083 31.175 22.0283 31.6625 21.708 32.022C21.3876 32.3814 20.9531 32.5833 20.5 32.5833H15.375L22.2083 30.6667ZM22.2083 30.6667V15.3333C22.2083 14.825 22.3883 14.3375 22.7087 13.9781C23.0291 13.6186 23.4636 13.4167 23.9167 13.4167H28.3344C28.7875 13.4168 29.2219 13.6188 29.5422 13.9783L35.3745 20.5218C35.6949 20.8811 35.8749 21.3686 35.875 21.8768V30.6667C35.875 31.175 35.695 31.6625 35.3746 32.022C35.0543 32.3814 34.6197 32.5833 34.1667 32.5833H32.4583L22.2083 30.6667ZM22.2083 30.6667C22.2083 31.175 22.3883 31.6625 22.7087 32.022C23.0291 32.3814 23.4636 32.5833 23.9167 32.5833H25.625L22.2083 30.6667ZM8.54167 32.5833C8.54167 33.6 8.90164 34.575 9.54239 35.2939C10.1831 36.0128 11.0522 36.4167 11.9583 36.4167C12.8645 36.4167 13.7335 36.0128 14.3743 35.2939C15.015 34.575 15.375 33.6 15.375 32.5833H8.54167ZM8.54167 32.5833C8.54167 31.5667 8.90164 30.5917 9.54239 29.8728C10.1831 29.1539 11.0522 28.75 11.9583 28.75C12.8645 28.75 13.7335 29.1539 14.3743 29.8728C15.015 30.5917 15.375 31.5667 15.375 32.5833H8.54167ZM25.625 32.5833C25.625 33.6 25.985 34.575 26.6257 35.2939C27.2665 36.0128 28.1355 36.4167 29.0417 36.4167C29.9478 36.4167 30.8169 36.0128 31.4576 35.2939C32.0984 34.575 32.4583 33.6 32.4583 32.5833H25.625Z" stroke="#1E90FF" stroke-width="3" stroke-linecap="round" stroke-linejoin="round"/>
</svg>
