<svg width="41" height="46" viewBox="0 0 41 46" fill="none" xmlns="http://www.w3.org/2000/svg">
<path d="M8.54167 23V36.4167C8.54167 37.4333 8.90164 38.4084 9.54239 39.1272C10.1831 39.8461 11.0522 40.25 11.9583 40.25H29.0417C29.9478 40.25 30.8169 39.8461 31.4576 39.1272C32.0984 38.4084 32.4583 37.4333 32.4583 36.4167V23M20.5 15.3333V40.25V15.3333ZM20.5 15.3333V11.5C20.5 10.7418 20.7004 10.0007 21.0758 9.37032C21.4512 8.73993 21.9849 8.2486 22.6092 7.95846C23.2335 7.66833 23.9205 7.59241 24.5832 7.74032C25.246 7.88823 25.8548 8.25332 26.3326 8.78943C26.8104 9.32553 27.1359 10.0086 27.2677 10.7522C27.3995 11.4957 27.3319 12.2665 27.0733 12.967C26.8147 13.6674 26.3767 14.2661 25.8149 14.6873C25.253 15.1085 24.5924 15.3333 23.9167 15.3333H20.5ZM20.5 15.3333V10.5417C20.5 9.59397 20.2495 8.66755 19.7802 7.87956C19.311 7.09158 18.6439 6.47742 17.8635 6.11475C17.0832 5.75208 16.2244 5.65719 15.396 5.84207C14.5675 6.02696 13.8065 6.48332 13.2092 7.15345C12.6119 7.82358 12.2052 8.67737 12.0404 9.60686C11.8756 10.5364 11.9602 11.4998 12.2834 12.3754C12.6067 13.2509 13.1541 13.9993 13.8564 14.5258C14.5588 15.0523 15.3845 15.3333 16.2292 15.3333H20.5ZM8.54167 23H32.4583H8.54167ZM8.54167 23C7.63551 23 6.76647 22.5961 6.12572 21.8772C5.48497 21.1584 5.125 20.1833 5.125 19.1667C5.125 18.15 5.48497 17.175 6.12572 16.4561C6.76647 15.7372 7.63551 15.3333 8.54167 15.3333H32.4583C33.3645 15.3333 34.2335 15.7372 34.8743 16.4561C35.515 17.175 35.875 18.15 35.875 19.1667C35.875 20.1833 35.515 21.1584 34.8743 21.8772C34.2335 22.5961 33.3645 23 32.4583 23H8.54167Z" stroke="#1E90FF" stroke-width="2" stroke-linecap="round" stroke-linejoin="round"/>
</svg>
