<svg data-v-423bf9ae="" xmlns="http://www.w3.org/2000/svg" viewBox="0 0 344.2249280033857 163" class="iconAbove"><!----><!----><!----><g data-v-423bf9ae="" id="28040d57-9221-4efb-86ee-8a663739d619" fill="white" transform="matrix(4.559270569581267,0,0,4.559270569581267,-2.234039573715876,90.37082203973256)"><path d="M3.77 7.15L4.49 7.41L4.49 7.41Q5.25 7.67 5.75 7.99L5.75 7.99L5.75 7.99Q6.26 8.30 6.56 8.66L6.56 8.66L6.56 8.66Q6.86 9.02 6.99 9.40L6.99 9.40L6.99 9.40Q7.13 9.79 7.13 10.19L7.13 10.19L7.13 10.19Q7.13 10.81 6.86 11.33L6.86 11.33L6.86 11.33Q6.59 11.84 6.11 12.24L6.11 12.24L6.11 12.24Q5.63 12.63 4.95 12.85L4.95 12.85L4.95 12.85Q4.27 13.06 3.43 13.06L3.43 13.06L3.43 13.06Q2.63 13.06 1.85 12.87L1.85 12.87L1.85 12.87Q1.06 12.68 0.49 12.33L0.49 12.33L0.57 10.28L1.74 10.28L2.02 11.96L2.02 11.96Q2.34 12.11 2.67 12.20L2.67 12.20L2.67 12.20Q3.01 12.29 3.42 12.29L3.42 12.29L3.42 12.29Q4.30 12.29 4.79 11.89L4.79 11.89L4.79 11.89Q5.28 11.48 5.28 10.81L5.28 10.81L5.28 10.81Q5.28 10.28 4.94 9.97L4.94 9.97L4.94 9.97Q4.59 9.66 3.84 9.38L3.84 9.38L3.15 9.13L3.15 9.13Q1.90 8.68 1.21 7.95L1.21 7.95L1.21 7.95Q0.52 7.21 0.52 6.16L0.52 6.16L0.52 6.16Q0.52 5.57 0.75 5.08L0.75 5.08L0.75 5.08Q0.98 4.59 1.42 4.23L1.42 4.23L1.42 4.23Q1.86 3.88 2.48 3.68L2.48 3.68L2.48 3.68Q3.11 3.47 3.91 3.47L3.91 3.47L3.91 3.47Q4.68 3.47 5.36 3.66L5.36 3.66L5.36 3.66Q6.03 3.85 6.54 4.20L6.54 4.20L6.44 6.12L5.29 6.12L5.01 4.47L5.01 4.47Q4.73 4.35 4.47 4.30L4.47 4.30L4.47 4.30Q4.20 4.24 3.92 4.24L3.92 4.24L3.92 4.24Q3.22 4.24 2.74 4.61L2.74 4.61L2.74 4.61Q2.27 4.97 2.27 5.64L2.27 5.64L2.27 5.64Q2.27 6.23 2.66 6.57L2.66 6.57L2.66 6.57Q3.05 6.90 3.77 7.15L3.77 7.15ZM14.90 12.07L15.69 12.24L15.69 12.85L12.11 12.85L12.11 12.24L12.96 12.07L12.96 12.07Q12.98 11.55 12.98 10.96L12.98 10.96L12.98 10.96Q12.98 10.37 12.98 9.91L12.98 9.91L12.98 8.57L12.98 8.57Q12.98 7.77 12.81 7.40L12.81 7.40L12.81 7.40Q12.64 7.03 12.15 7.03L12.15 7.03L12.15 7.03Q11.75 7.03 11.36 7.25L11.36 7.25L11.36 7.25Q10.98 7.46 10.57 7.85L10.57 7.85L10.57 9.91L10.57 9.91Q10.57 10.36 10.57 10.96L10.57 10.96L10.57 10.96Q10.57 11.55 10.58 12.07L10.58 12.07L11.38 12.24L11.38 12.85L7.80 12.85L7.80 12.24L8.65 12.07L8.65 12.07Q8.67 11.54 8.67 10.95L8.67 10.95L8.67 10.95Q8.67 10.36 8.67 9.91L8.67 9.91L8.67 4.10L7.62 3.96L7.62 3.40L10.39 2.77L10.58 2.88L10.53 4.87L10.53 7.13L10.53 7.13Q10.82 6.79 11.08 6.56L11.08 6.56L11.08 6.56Q11.34 6.33 11.61 6.17L11.61 6.17L11.61 6.17Q11.87 6.02 12.17 5.95L12.17 5.95L12.17 5.95Q12.46 5.88 12.82 5.88L12.82 5.88L12.82 5.88Q13.82 5.88 14.35 6.48L14.35 6.48L14.35 6.48Q14.88 7.07 14.88 8.34L14.88 8.34L14.88 9.91L14.88 9.91Q14.88 10.37 14.88 10.97L14.88 10.97L14.88 10.97Q14.88 11.56 14.90 12.07L14.90 12.07ZM19.96 6.58L19.96 6.58L19.96 6.58Q18.49 6.58 18.49 9.48L18.49 9.48L18.49 9.48Q18.49 10.96 18.87 11.66L18.87 11.66L18.87 11.66Q19.24 12.36 19.96 12.36L19.96 12.36L19.96 12.36Q20.71 12.36 21.07 11.66L21.07 11.66L21.07 11.66Q21.43 10.96 21.43 9.48L21.43 9.48L21.43 9.48Q21.43 6.58 19.96 6.58ZM19.96 5.88L19.96 5.88L19.96 5.88Q20.66 5.88 21.30 6.13L21.30 6.13L21.30 6.13Q21.94 6.38 22.43 6.85L22.43 6.85L22.43 6.85Q22.92 7.32 23.21 7.99L23.21 7.99L23.21 7.99Q23.51 8.65 23.51 9.49L23.51 9.49L23.51 9.49Q23.51 10.33 23.24 10.99L23.24 10.99L23.24 10.99Q22.97 11.65 22.50 12.11L22.50 12.11L22.50 12.11Q22.02 12.57 21.37 12.82L21.37 12.82L21.37 12.82Q20.72 13.06 19.96 13.06L19.96 13.06L19.96 13.06Q19.21 13.06 18.56 12.82L18.56 12.82L18.56 12.82Q17.91 12.57 17.44 12.11L17.44 12.11L17.44 12.11Q16.97 11.65 16.70 10.99L16.70 10.99L16.70 10.99Q16.42 10.33 16.42 9.49L16.42 9.49L16.42 9.49Q16.42 8.65 16.71 7.99L16.71 7.99L16.71 7.99Q17.00 7.32 17.49 6.85L17.49 6.85L17.49 6.85Q17.98 6.38 18.62 6.13L18.62 6.13L18.62 6.13Q19.26 5.88 19.96 5.88ZM27.09 7.43L27.09 11.55L27.09 11.55Q27.37 11.75 27.66 11.87L27.66 11.87L27.66 11.87Q27.96 11.98 28.25 11.98L28.25 11.98L28.25 11.98Q28.90 11.98 29.34 11.38L29.34 11.38L29.34 11.38Q29.79 10.77 29.79 9.48L29.79 9.48L29.79 9.48Q29.79 8.19 29.41 7.58L29.41 7.58L29.41 7.58Q29.02 6.97 28.35 6.97L28.35 6.97L28.35 6.97Q28.03 6.97 27.71 7.10L27.71 7.10L27.71 7.10Q27.40 7.22 27.09 7.43L27.09 7.43ZM26.91 6.02L26.98 6.79L26.98 6.79Q27.41 6.36 27.90 6.12L27.90 6.12L27.90 6.12Q28.39 5.88 29.05 5.88L29.05 5.88L29.05 5.88Q29.64 5.88 30.15 6.10L30.15 6.10L30.15 6.10Q30.66 6.33 31.03 6.78L31.03 6.78L31.03 6.78Q31.40 7.22 31.61 7.89L31.61 7.89L31.61 7.89Q31.82 8.55 31.82 9.44L31.82 9.44L31.82 9.44Q31.82 10.28 31.59 10.95L31.59 10.95L31.59 10.95Q31.36 11.62 30.95 12.09L30.95 12.09L30.95 12.09Q30.55 12.56 30.01 12.81L30.01 12.81L30.01 12.81Q29.47 13.06 28.84 13.06L28.84 13.06L28.84 13.06Q28.28 13.06 27.85 12.89L27.85 12.89L27.85 12.89Q27.41 12.71 27.05 12.36L27.05 12.36L27.05 12.85L27.05 12.85Q27.05 13.33 27.05 13.94L27.05 13.94L27.05 13.94Q27.05 14.56 27.06 15.11L27.06 15.11L28.10 15.32L28.10 15.93L24.32 15.93L24.32 15.32L25.17 15.15L25.17 15.15Q25.19 14.60 25.19 13.96L25.19 13.96L25.19 13.96Q25.19 13.33 25.19 12.85L25.19 12.85L25.19 9.11L25.19 9.11Q25.19 8.82 25.19 8.60L25.19 8.60L25.19 8.60Q25.19 8.39 25.18 8.20L25.18 8.20L25.18 8.20Q25.17 8.01 25.17 7.83L25.17 7.83L25.17 7.83Q25.16 7.66 25.14 7.45L25.14 7.45L24.21 7.32L24.21 6.79L26.74 5.88L26.91 6.02ZM46.07 4.38L44.94 4.51L44.94 4.51Q44.91 5.38 44.91 6.25L44.91 6.25L44.91 6.25Q44.91 7.13 44.91 8.02L44.91 8.02L44.91 8.51L44.91 8.51Q44.91 9.39 44.91 10.27L44.91 10.27L44.91 10.27Q44.91 11.14 44.94 12.03L44.94 12.03L46.07 12.15L46.07 12.85L41.71 12.85L41.71 12.15L42.84 12.03L42.84 12.03Q42.87 11.19 42.87 10.31L42.87 10.31L42.87 10.31Q42.87 9.44 42.87 8.50L42.87 8.50L39.05 8.50L39.05 8.50Q39.05 9.42 39.05 10.30L39.05 10.30L39.05 10.30Q39.05 11.17 39.07 12.03L39.07 12.03L40.21 12.15L40.21 12.85L35.84 12.85L35.84 12.15L36.97 12.03L36.97 12.03Q37.00 11.16 37.00 10.28L37.00 10.28L37.00 10.28Q37.00 9.41 37.00 8.51L37.00 8.51L37.00 8.02L37.00 8.02Q37.00 7.14 37.00 6.27L37.00 6.27L37.00 6.27Q37.00 5.39 36.97 4.51L36.97 4.51L35.84 4.38L35.84 3.68L40.21 3.68L40.21 4.38L39.07 4.51L39.07 4.51Q39.05 5.31 39.05 6.10L39.05 6.10L39.05 6.10Q39.05 6.90 39.05 7.73L39.05 7.73L42.87 7.73L42.87 7.73Q42.87 6.92 42.87 6.11L42.87 6.11L42.87 6.11Q42.87 5.31 42.84 4.51L42.84 4.51L41.71 4.38L41.71 3.68L46.07 3.68L46.07 4.38ZM50.20 6.58L50.20 6.58L50.20 6.58Q48.73 6.58 48.73 9.48L48.73 9.48L48.73 9.48Q48.73 10.96 49.10 11.66L49.10 11.66L49.10 11.66Q49.48 12.36 50.20 12.36L50.20 12.36L50.20 12.36Q50.95 12.36 51.31 11.66L51.31 11.66L51.31 11.66Q51.67 10.96 51.67 9.48L51.67 9.48L51.67 9.48Q51.67 6.58 50.20 6.58ZM50.20 5.88L50.20 5.88L50.20 5.88Q50.90 5.88 51.54 6.13L51.54 6.13L51.54 6.13Q52.18 6.38 52.67 6.85L52.67 6.85L52.67 6.85Q53.16 7.32 53.45 7.99L53.45 7.99L53.45 7.99Q53.75 8.65 53.75 9.49L53.75 9.49L53.75 9.49Q53.75 10.33 53.48 10.99L53.48 10.99L53.48 10.99Q53.21 11.65 52.74 12.11L52.74 12.11L52.74 12.11Q52.26 12.57 51.61 12.82L51.61 12.82L51.61 12.82Q50.96 13.06 50.20 13.06L50.20 13.06L50.20 13.06Q49.45 13.06 48.80 12.82L48.80 12.82L48.80 12.82Q48.15 12.57 47.68 12.11L47.68 12.11L47.68 12.11Q47.21 11.65 46.93 10.99L46.93 10.99L46.93 10.99Q46.66 10.33 46.66 9.49L46.66 9.49L46.66 9.49Q46.66 8.65 46.95 7.99L46.95 7.99L46.95 7.99Q47.24 7.32 47.73 6.85L47.73 6.85L47.73 6.85Q48.22 6.38 48.86 6.13L48.86 6.13L48.86 6.13Q49.50 5.88 50.20 5.88ZM61.46 12.07L62.27 12.24L62.27 12.85L59.70 12.99L59.60 11.83L59.60 11.83Q59.07 12.43 58.49 12.75L58.49 12.75L58.49 12.75Q57.92 13.06 57.25 13.06L57.25 13.06L57.25 13.06Q56.80 13.06 56.44 12.93L56.44 12.93L56.44 12.93Q56.08 12.80 55.82 12.50L55.82 12.50L55.82 12.50Q55.57 12.19 55.43 11.72L55.43 11.72L55.43 11.72Q55.29 11.24 55.30 10.54L55.30 10.54L55.36 6.97L54.59 6.83L54.59 6.27L57.11 6.02L57.27 6.13L57.20 8.12L57.20 10.28L57.20 10.28Q57.20 11.20 57.44 11.56L57.44 11.56L57.44 11.56Q57.68 11.91 58.06 11.91L58.06 11.91L58.06 11.91Q58.42 11.91 58.81 11.68L58.81 11.68L58.81 11.68Q59.19 11.44 59.56 11.09L59.56 11.09L59.61 6.97L58.84 6.83L58.84 6.30L61.33 6.02L61.50 6.13L61.46 8.12L61.46 12.07ZM66.29 8.54L66.77 8.71L66.77 8.71Q67.31 8.90 67.68 9.13L67.68 9.13L67.68 9.13Q68.04 9.37 68.25 9.63L68.25 9.63L68.25 9.63Q68.46 9.90 68.54 10.20L68.54 10.20L68.54 10.20Q68.63 10.50 68.63 10.84L68.63 10.84L68.63 10.84Q68.63 11.34 68.42 11.75L68.42 11.75L68.42 11.75Q68.21 12.15 67.82 12.45L67.82 12.45L67.82 12.45Q67.42 12.74 66.88 12.90L66.88 12.90L66.88 12.90Q66.33 13.06 65.65 13.06L65.65 13.06L65.65 13.06Q64.92 13.06 64.36 12.89L64.36 12.89L64.36 12.89Q63.81 12.73 63.22 12.39L63.22 12.39L63.22 10.78L64.30 10.78L64.48 12.00L64.48 12.00Q64.81 12.18 65.08 12.26L65.08 12.26L65.08 12.26Q65.35 12.33 65.65 12.33L65.65 12.33L65.65 12.33Q66.32 12.33 66.63 12.11L66.63 12.11L66.63 12.11Q66.95 11.89 66.95 11.42L66.95 11.42L66.95 11.42Q66.95 11.23 66.88 11.08L66.88 11.08L66.88 11.08Q66.82 10.93 66.67 10.81L66.67 10.81L66.67 10.81Q66.51 10.68 66.25 10.56L66.25 10.56L66.25 10.56Q66.00 10.43 65.59 10.28L65.59 10.28L64.95 10.02L64.95 10.02Q64.11 9.70 63.68 9.19L63.68 9.19L63.68 9.19Q63.25 8.68 63.25 7.94L63.25 7.94L63.25 7.94Q63.25 7.01 63.96 6.45L63.96 6.45L63.96 6.45Q64.67 5.88 66.11 5.88L66.11 5.88L66.11 5.88Q66.74 5.88 67.23 6.02L67.23 6.02L67.23 6.02Q67.72 6.16 68.24 6.41L68.24 6.41L68.15 7.95L67.09 7.95L66.88 6.79L66.88 6.79Q66.70 6.72 66.50 6.66L66.50 6.66L66.50 6.66Q66.30 6.61 66.02 6.61L66.02 6.61L66.02 6.61Q65.52 6.61 65.21 6.84L65.21 6.84L65.21 6.84Q64.90 7.07 64.90 7.48L64.90 7.48L64.90 7.48Q64.90 7.63 64.96 7.76L64.96 7.76L64.96 7.76Q65.02 7.90 65.17 8.02L65.17 8.02L65.17 8.02Q65.32 8.15 65.60 8.27L65.60 8.27L65.60 8.27Q65.87 8.40 66.29 8.54L66.29 8.54ZM71.62 8.86L73.30 8.86L73.30 8.86Q73.81 8.86 74.00 8.65L74.00 8.65L74.00 8.65Q74.19 8.44 74.19 7.99L74.19 7.99L74.19 7.99Q74.19 7.32 73.91 6.95L73.91 6.95L73.91 6.95Q73.63 6.58 73.18 6.58L73.18 6.58L73.18 6.58Q72.94 6.58 72.69 6.69L72.69 6.69L72.69 6.69Q72.44 6.80 72.22 7.07L72.22 7.07L72.22 7.07Q72.00 7.34 71.84 7.78L71.84 7.78L71.84 7.78Q71.68 8.22 71.62 8.86L71.62 8.86ZM75.91 9.56L71.61 9.56L71.61 9.56Q71.65 10.81 72.22 11.39L72.22 11.39L72.22 11.39Q72.79 11.97 73.64 11.97L73.64 11.97L73.64 11.97Q74.26 11.97 74.65 11.70L74.65 11.70L74.65 11.70Q75.05 11.42 75.38 10.92L75.38 10.92L75.85 11.19L75.85 11.19Q75.57 12.11 74.80 12.59L74.80 12.59L74.80 12.59Q74.03 13.06 72.97 13.06L72.97 13.06L72.97 13.06Q72.21 13.06 71.58 12.82L71.58 12.82L71.58 12.82Q70.95 12.59 70.51 12.13L70.51 12.13L70.51 12.13Q70.07 11.68 69.82 11.01L69.82 11.01L69.82 11.01Q69.58 10.35 69.58 9.49L69.58 9.49L69.58 9.49Q69.58 8.69 69.85 8.04L69.85 8.04L69.85 8.04Q70.11 7.38 70.58 6.90L70.58 6.90L70.58 6.90Q71.05 6.41 71.69 6.15L71.69 6.15L71.69 6.15Q72.34 5.88 73.08 5.88L73.08 5.88L73.08 5.88Q73.75 5.88 74.29 6.10L74.29 6.10L74.29 6.10Q74.83 6.31 75.21 6.71L75.21 6.71L75.21 6.71Q75.59 7.10 75.79 7.64L75.79 7.64L75.79 7.64Q75.99 8.19 75.99 8.83L75.99 8.83L75.99 8.83Q75.99 9.23 75.91 9.56L75.91 9.56Z"></path></g><!----><g data-v-423bf9ae="" id="f550de22-a86e-43c3-b866-ea65e2f38184" transform="matrix(1.0928098336284182,0,0,1.0928098336284182,118.35893774680724,1.0000464015534263)" stroke="none" fill="white"><path d="M91.723 11.444h-11.88v9.899l11.88 11.877zM98.977 47.376L52.625 1.024c-1.367-1.366-3.881-1.366-5.248 0L1.024 47.376c-1.366 1.365-1.366 3.881 0 5.246 1.366 1.367 3.881 1.367 5.248 0v27.111c0 1.094 1.53 2.623 2.624 2.623H90.23c1.094 0 2.623-1.529 2.623-2.623V51.748l.875.875c1.365 1.365 3.883 1.365 5.248 0 1.366-1.364 1.366-3.881.001-5.247zm-11.371.874v27.111c0 1.094-.655 1.75-1.748 1.75H63.994V50c0-3.279-2.841-5.247-6.123-5.247H42.129c-3.281 0-6.122 1.968-6.122 5.247v27.111H13.27c-1.094 0-1.749-1.531-1.749-2.623V49.125c0-.496.615-1.779 1.286-3.034L49.579 9.318l12.723 11.878L86.896 45.79c.38.995.71 1.995.71 2.46z"></path></g><!----></svg>